<svg height="926" width="720" xmlns="http://www.w3.org/2000/svg">
<rect height="926" fill="#555" width="720"></rect>
<text fill="#7f7" font-family="Courier New" font-size="12" xml:space="preserve">
<tspan x="10" y="26">3 megabytes installed</tspan>
<tspan x="10" y="42"></tspan>
<tspan x="10" y="58">node_modules</tspan>
<tspan x="10" y="74">└─┬ confidence@3.0.2 </tspan>
<tspan x="10" y="90">  ├─┬ alce@1.2.0 </tspan>
<tspan x="10" y="106">  │ ├── esprima@1.2.5 </tspan>
<tspan x="10" y="122">  │ └── estraverse@1.9.3 </tspan>
<tspan x="10" y="138">  ├── boom@3.2.2 </tspan>
<tspan x="10" y="154">  ├── hoek@4.1.1 </tspan>
<tspan x="10" y="170">  └─┬ yargs@4.8.1 </tspan>
<tspan x="10" y="186">    ├─┬ cliui@3.2.0 </tspan>
<tspan x="10" y="202">    │ ├─┬ strip-ansi@3.0.1 </tspan>
<tspan x="10" y="218">    │ │ └── ansi-regex@2.1.1 </tspan>
<tspan x="10" y="234">    │ └── wrap-ansi@2.1.0 </tspan>
<tspan x="10" y="250">    ├── decamelize@1.2.0 </tspan>
<tspan x="10" y="266">    ├── get-caller-file@1.0.2 </tspan>
<tspan x="10" y="282">    ├── lodash.assign@4.2.0 </tspan>
<tspan x="10" y="298">    ├─┬ os-locale@1.4.0 </tspan>
<tspan x="10" y="314">    │ └─┬ lcid@1.0.0 </tspan>
<tspan x="10" y="330">    │   └── invert-kv@1.0.0 </tspan>
<tspan x="10" y="346">    ├─┬ read-pkg-up@1.0.1 </tspan>
<tspan x="10" y="362">    │ ├─┬ find-up@1.1.2 </tspan>
<tspan x="10" y="378">    │ │ ├── path-exists@2.1.0 </tspan>
<tspan x="10" y="394">    │ │ └─┬ pinkie-promise@2.0.1 </tspan>
<tspan x="10" y="410">    │ │   └── pinkie@2.0.4 </tspan>
<tspan x="10" y="426">    │ └─┬ read-pkg@1.1.0 </tspan>
<tspan x="10" y="442">    │   ├─┬ load-json-file@1.1.0 </tspan>
<tspan x="10" y="458">    │   │ ├── graceful-fs@4.1.11 </tspan>
<tspan x="10" y="474">    │   │ ├─┬ parse-json@2.2.0 </tspan>
<tspan x="10" y="490">    │   │ │ └─┬ error-ex@1.3.1 </tspan>
<tspan x="10" y="506">    │   │ │   └── is-arrayish@0.2.1 </tspan>
<tspan x="10" y="522">    │   │ ├── pify@2.3.0 </tspan>
<tspan x="10" y="538">    │   │ └─┬ strip-bom@2.0.0 </tspan>
<tspan x="10" y="554">    │   │   └── is-utf8@0.2.1 </tspan>
<tspan x="10" y="570">    │   ├─┬ normalize-package-data@2.3.8 </tspan>
<tspan x="10" y="586">    │   │ ├── hosted-git-info@2.4.2 </tspan>
<tspan x="10" y="602">    │   │ ├─┬ is-builtin-module@1.0.0 </tspan>
<tspan x="10" y="618">    │   │ │ └── builtin-modules@1.1.1 </tspan>
<tspan x="10" y="634">    │   │ ├── semver@5.3.0 </tspan>
<tspan x="10" y="650">    │   │ └─┬ validate-npm-package-license@3.0.1 </tspan>
<tspan x="10" y="666">    │   │   ├─┬ spdx-correct@1.0.2 </tspan>
<tspan x="10" y="682">    │   │   │ └── spdx-license-ids@1.2.2 </tspan>
<tspan x="10" y="698">    │   │   └── spdx-expression-parse@1.0.4 </tspan>
<tspan x="10" y="714">    │   └── path-type@1.1.0 </tspan>
<tspan x="10" y="730">    ├── require-directory@2.1.1 </tspan>
<tspan x="10" y="746">    ├── require-main-filename@1.0.1 </tspan>
<tspan x="10" y="762">    ├── set-blocking@2.0.0 </tspan>
<tspan x="10" y="778">    ├─┬ string-width@1.0.2 </tspan>
<tspan x="10" y="794">    │ ├── code-point-at@1.1.0 </tspan>
<tspan x="10" y="810">    │ └─┬ is-fullwidth-code-point@1.0.0 </tspan>
<tspan x="10" y="826">    │   └── number-is-nan@1.0.1 </tspan>
<tspan x="10" y="842">    ├── which-module@1.0.0 </tspan>
<tspan x="10" y="858">    ├── window-size@0.2.0 </tspan>
<tspan x="10" y="874">    ├── y18n@3.2.1 </tspan>
<tspan x="10" y="890">    └─┬ yargs-parser@2.4.1 </tspan>
<tspan x="10" y="906">      └── camelcase@3.0.0</tspan>
</text>
</svg>
